<svg width="64" height="64" viewBox="0 0 64 64" fill="none" xmlns="http://www.w3.org/2000/svg">
<g filter="url(#filter0_i_33_116)">
<path d="M14 41C20 33 26 30 32 32C38 34 44 31 50 23" stroke="url(#paint0_linear_33_116)" stroke-width="3" stroke-linecap="round"/>
</g>
<g filter="url(#filter1_i_33_116)">
<path d="M14 32C20 24 26 21 32 23C38 25 44 22 50 14" stroke="url(#paint1_linear_33_116)" stroke-width="3" stroke-linecap="round"/>
</g>
<g filter="url(#filter2_i_33_116)">
<path d="M14 50C20 42 26 39 32 41C38 43 44 40 50 32" stroke="url(#paint2_linear_33_116)" stroke-width="3" stroke-linecap="round"/>
</g>
<path d="M52 4C56.4183 4 60 7.58172 60 12V52C60 56.4183 56.4183 60 52 60H12C7.58172 60 4 56.4183 4 52V12C4 7.58172 7.58172 4 12 4H52ZM13.1484 8.14844C10.387 8.14844 8.14844 10.387 8.14844 13.1484V50.8516C8.14844 53.613 10.387 55.8516 13.1484 55.8516H50.8516C53.613 55.8516 55.8516 53.613 55.8516 50.8516V13.1484C55.8516 10.387 53.613 8.14844 50.8516 8.14844H13.1484Z" fill="url(#paint3_linear_33_116)"/>
<defs>
<filter id="filter0_i_33_116" x="12.4999" y="21.4999" width="39.0002" height="25.0001" filterUnits="userSpaceOnUse" color-interpolation-filters="sRGB">
<feFlood flood-opacity="0" result="BackgroundImageFix"/>
<feBlend mode="normal" in="SourceGraphic" in2="BackgroundImageFix" result="shape"/>
<feColorMatrix in="SourceAlpha" type="matrix" values="0 0 0 0 0 0 0 0 0 0 0 0 0 0 0 0 0 0 127 0" result="hardAlpha"/>
<feOffset dy="4"/>
<feGaussianBlur stdDeviation="2"/>
<feComposite in2="hardAlpha" operator="arithmetic" k2="-1" k3="1"/>
<feColorMatrix type="matrix" values="0 0 0 0 0 0 0 0 0 0 0 0 0 0 0 0 0 0 0.25 0"/>
<feBlend mode="normal" in2="shape" result="effect1_innerShadow_33_116"/>
</filter>
<filter id="filter1_i_33_116" x="12.4999" y="12.4999" width="39.0002" height="25.0001" filterUnits="userSpaceOnUse" color-interpolation-filters="sRGB">
<feFlood flood-opacity="0" result="BackgroundImageFix"/>
<feBlend mode="normal" in="SourceGraphic" in2="BackgroundImageFix" result="shape"/>
<feColorMatrix in="SourceAlpha" type="matrix" values="0 0 0 0 0 0 0 0 0 0 0 0 0 0 0 0 0 0 127 0" result="hardAlpha"/>
<feOffset dy="4"/>
<feGaussianBlur stdDeviation="2"/>
<feComposite in2="hardAlpha" operator="arithmetic" k2="-1" k3="1"/>
<feColorMatrix type="matrix" values="0 0 0 0 0 0 0 0 0 0 0 0 0 0 0 0 0 0 0.25 0"/>
<feBlend mode="normal" in2="shape" result="effect1_innerShadow_33_116"/>
</filter>
<filter id="filter2_i_33_116" x="12.4999" y="30.4999" width="39.0002" height="25.0001" filterUnits="userSpaceOnUse" color-interpolation-filters="sRGB">
<feFlood flood-opacity="0" result="BackgroundImageFix"/>
<feBlend mode="normal" in="SourceGraphic" in2="BackgroundImageFix" result="shape"/>
<feColorMatrix in="SourceAlpha" type="matrix" values="0 0 0 0 0 0 0 0 0 0 0 0 0 0 0 0 0 0 127 0" result="hardAlpha"/>
<feOffset dy="4"/>
<feGaussianBlur stdDeviation="2"/>
<feComposite in2="hardAlpha" operator="arithmetic" k2="-1" k3="1"/>
<feColorMatrix type="matrix" values="0 0 0 0 0 0 0 0 0 0 0 0 0 0 0 0 0 0 0.25 0"/>
<feBlend mode="normal" in2="shape" result="effect1_innerShadow_33_116"/>
</filter>
<linearGradient id="paint0_linear_33_116" x1="32" y1="23" x2="32" y2="41" gradientUnits="userSpaceOnUse">
<stop stop-color="#246AAC"/>
<stop offset="1" stop-color="#0F2B46"/>
</linearGradient>
<linearGradient id="paint1_linear_33_116" x1="32" y1="14" x2="32" y2="32" gradientUnits="userSpaceOnUse">
<stop stop-color="#EDF1F6"/>
<stop offset="1" stop-color="#446188"/>
</linearGradient>
<linearGradient id="paint2_linear_33_116" x1="32" y1="32" x2="32" y2="50" gradientUnits="userSpaceOnUse">
<stop stop-color="#8B8E92"/>
<stop offset="1" stop-color="#2A2B2C"/>
</linearGradient>
<linearGradient id="paint3_linear_33_116" x1="60" y1="32.044" x2="4" y2="31.956" gradientUnits="userSpaceOnUse">
<stop stop-color="#246AAC"/>
<stop offset="1" stop-color="#0F2B46"/>
</linearGradient>
</defs>
</svg>
